999
"DXF R12 Output" (www.mydxf.blogspot.com)
 0 
SECTION
 2 
HEADER
 9 
$ACADVER
 1 
AC1009
 9 
$EXTMIN
 10 
 0 
 20 
 0 
 9 
$EXTMAX
 10 
 8.5 
 20 
 11 
 0 
ENDSEC
 0 
SECTION
 2 
ENTITIES
0
LINE
8
Layer 1
10
0.793749
20
297.793749
11
-0.793749
21
296.206251
0
LINE
8
Layer 1
10
0.000000
20
298.322915
11
0.000000
21
295.677085
0
LINE
8
Layer 1
10
2.116664
20
295.941668
11
1.058332
21
294.883336
0
LINE
8
Layer 1
10
1.587498
20
296.470834
11
0.529166
21
295.412502
0
LINE
8
Layer 1
10
1.058332
20
297.000000
11
0.000000
21
295.941668
0
LINE
8
0
10
15.850585
20
-60.554820
11
18.851380
21
-60.554820
0
LINE
8
0
10
10.850575
20
-60.554820
11
15.850585
21
-60.554820
0
LINE
8
0
10
10.850575
20
-60.554820
11
10.850575
21
62.645872
0
LINE
8
0
10
76.850514
20
62.645872
11
76.850514
21
-60.554820
0
LINE
8
0
10
71.850424
20
-60.554820
11
76.850514
21
-60.554820
0
LINE
8
0
10
71.850424
20
-60.554820
11
68.849788
21
-60.554820
0
LINE
8
0
10
68.849708
20
-60.553995
11
68.654195
21
-57.223578
0
LINE
8
0
10
68.654195
20
-57.223578
11
68.027884
21
-53.991312
0
LINE
8
0
10
68.027884
20
-53.991312
11
66.991936
21
-50.894303
0
LINE
8
0
10
66.991936
20
-50.894303
11
65.567510
21
-47.969655
0
LINE
8
0
10
65.567510
20
-47.969655
11
63.775765
21
-45.254474
0
LINE
8
0
10
63.775765
20
-45.254474
11
61.637861
21
-42.785866
0
LINE
8
0
10
61.637861
20
-42.785866
11
59.174959
21
-40.600936
0
LINE
8
0
10
59.174959
20
-40.600936
11
56.408218
21
-38.736789
0
LINE
8
0
10
56.408218
20
-38.736789
11
53.418300
21
-37.256826
0
LINE
8
0
10
53.418300
20
-37.256826
11
50.300237
21
-36.199709
0
LINE
8
0
10
50.300237
20
-36.199709
11
47.096746
21
-35.565439
0
LINE
8
0
10
47.096746
20
-35.565439
11
43.850539
21
-35.354016
0
LINE
8
0
10
43.850539
20
-35.354016
11
40.604333
21
-35.565439
0
LINE
8
0
10
40.604333
20
-35.565439
11
37.400841
21
-36.199709
0
LINE
8
0
10
37.400841
20
-36.199709
11
34.282779
21
-37.256826
0
LINE
8
0
10
34.282779
20
-37.256826
11
31.292861
21
-38.736789
0
LINE
8
0
10
31.292861
20
-38.736789
11
28.526119
21
-40.600936
0
LINE
8
0
10
28.526119
20
-40.600936
11
26.063217
21
-42.785866
0
LINE
8
0
10
26.063217
20
-42.785866
11
23.925314
21
-45.254474
0
LINE
8
0
10
23.925314
20
-45.254474
11
22.133569
21
-47.969655
0
LINE
8
0
10
22.133569
20
-47.969655
11
20.709142
21
-50.894303
0
LINE
8
0
10
20.709142
20
-50.894303
11
19.673194
21
-53.991312
0
LINE
8
0
10
19.673194
20
-53.991312
11
19.046883
21
-57.223578
0
LINE
8
0
10
19.046883
20
-57.223578
11
18.851371
21
-60.553995
0
LINE
8
0
10
10.850575
20
62.645872
11
76.850514
21
62.645872
0
LINE
8
0
10
18.947559
20
-62.553993
11
19.272774
21
-64.936597
0
LINE
8
0
10
19.272774
20
-64.936597
11
19.813575
21
-67.238602
0
LINE
8
0
10
19.813575
20
-67.238602
11
20.558944
21
-69.449918
0
LINE
8
0
10
20.558944
20
-69.449918
11
21.497861
21
-71.560457
0
LINE
8
0
10
21.497861
20
-71.560457
11
22.619305
21
-73.560129
0
LINE
8
0
10
22.619305
20
-73.560129
11
23.912259
21
-75.438847
0
LINE
8
0
10
23.912259
20
-75.438847
11
25.365703
21
-77.186520
0
LINE
8
0
10
25.365703
20
-77.186520
11
26.968617
21
-78.793062
0
LINE
8
0
10
26.968617
20
-78.793062
11
28.709982
21
-80.248382
0
LINE
8
0
10
28.709982
20
-80.248382
11
30.578779
21
-81.542391
0
LINE
8
0
10
30.578779
20
-81.542391
11
32.563988
21
-82.665002
0
LINE
8
0
10
32.563988
20
-82.665002
11
34.654589
21
-83.606125
0
LINE
8
0
10
34.654589
20
-83.606125
11
36.839565
21
-84.355672
0
LINE
8
0
10
36.839565
20
-84.355672
11
39.107895
21
-84.903553
0
LINE
8
0
10
39.107895
20
-84.903553
11
41.448559
21
-85.239680
0
LINE
8
0
10
41.448559
20
-85.239680
11
43.850539
21
-85.353965
0
LINE
8
0
10
43.850539
20
-85.353965
11
46.252519
21
-85.239680
0
LINE
8
0
10
46.252519
20
-85.239680
11
48.593184
21
-84.903553
0
LINE
8
0
10
48.593184
20
-84.903553
11
50.861513
21
-84.355672
0
LINE
8
0
10
50.861513
20
-84.355672
11
53.046489
21
-83.606125
0
LINE
8
0
10
53.046489
20
-83.606125
11
55.137091
21
-82.665002
0
LINE
8
0
10
55.137091
20
-82.665002
11
57.122300
21
-81.542391
0
LINE
8
0
10
57.122300
20
-81.542391
11
58.991096
21
-80.248382
0
LINE
8
0
10
58.991096
20
-80.248382
11
60.732461
21
-78.793062
0
LINE
8
0
10
60.732461
20
-78.793062
11
62.335375
21
-77.186520
0
LINE
8
0
10
62.335375
20
-77.186520
11
63.788819
21
-75.438847
0
LINE
8
0
10
63.788819
20
-75.438847
11
65.081773
21
-73.560129
0
LINE
8
0
10
65.081773
20
-73.560129
11
66.203218
21
-71.560457
0
LINE
8
0
10
66.203218
20
-71.560457
11
67.142134
21
-69.449918
0
LINE
8
0
10
67.142134
20
-69.449918
11
67.887503
21
-67.238602
0
LINE
8
0
10
67.887503
20
-67.238602
11
68.428305
21
-64.936597
0
LINE
8
0
10
68.428305
20
-64.936597
11
68.753520
21
-62.553993
0
LINE
8
0
10
10.850575
20
-88.354556
11
10.850575
21
-62.555068
0
LINE
8
0
10
10.850575
20
-62.555068
11
18.947556
21
-62.555068
0
LINE
8
0
10
10.850575
20
-88.354556
11
76.850514
21
-88.354556
0
LINE
8
0
10
76.850514
20
-88.354556
11
76.850514
21
-62.555068
0
LINE
8
0
10
76.850514
20
-62.555068
11
68.753480
21
-62.555068
0
LINE
8
0
10
76.650498
20
-62.753992
11
68.935962
21
-62.753992
0
LINE
8
0
10
68.935962
20
-62.753992
11
68.593088
21
-65.140656
0
LINE
8
0
10
68.593088
20
-65.140656
11
68.035642
21
-67.445673
0
LINE
8
0
10
68.035642
20
-67.445673
11
67.274602
21
-69.659063
0
LINE
8
0
10
67.274602
20
-69.659063
11
66.320952
21
-71.770847
0
LINE
8
0
10
66.320952
20
-71.770847
11
65.185671
21
-73.771043
0
LINE
8
0
10
65.185671
20
-73.771043
11
63.879740
21
-75.649670
0
LINE
8
0
10
63.879740
20
-75.649670
11
62.414141
21
-77.396749
0
LINE
8
0
10
62.414141
20
-77.396749
11
60.799855
21
-79.002298
0
LINE
8
0
10
60.799855
20
-79.002298
11
59.047862
21
-80.456337
0
LINE
8
0
10
59.047862
20
-80.456337
11
57.169144
21
-81.748886
0
LINE
8
0
10
57.169144
20
-81.748886
11
55.174682
21
-82.869964
0
LINE
8
0
10
55.174682
20
-82.869964
11
53.075456
21
-83.809590
0
LINE
8
0
10
53.075456
20
-83.809590
11
50.882448
21
-84.557784
0
LINE
8
0
10
50.882448
20
-84.557784
11
48.606638
21
-85.104565
0
LINE
8
0
10
48.606638
20
-85.104565
11
46.259008
21
-85.439952
0
LINE
8
0
10
46.259008
20
-85.439952
11
43.850539
21
-85.553966
0
LINE
8
0
10
43.850539
20
-85.553966
11
41.442070
21
-85.439952
0
LINE
8
0
10
41.442070
20
-85.439952
11
39.094440
21
-85.104565
0
LINE
8
0
10
39.094440
20
-85.104565
11
36.818631
21
-84.557784
0
LINE
8
0
10
36.818631
20
-84.557784
11
34.625622
21
-83.809590
0
LINE
8
0
10
34.625622
20
-83.809590
11
32.526397
21
-82.869964
0
LINE
8
0
10
32.526397
20
-82.869964
11
30.531934
21
-81.748886
0
LINE
8
0
10
30.531934
20
-81.748886
11
28.653216
21
-80.456337
0
LINE
8
0
10
28.653216
20
-80.456337
11
26.901223
21
-79.002298
0
LINE
8
0
10
26.901223
20
-79.002298
11
25.286937
21
-77.396749
0
LINE
8
0
10
25.286937
20
-77.396749
11
23.821338
21
-75.649670
0
LINE
8
0
10
23.821338
20
-75.649670
11
22.515408
21
-73.771043
0
LINE
8
0
10
22.515408
20
-73.771043
11
21.380127
21
-71.770847
0
LINE
8
0
10
21.380127
20
-71.770847
11
20.426476
21
-69.659063
0
LINE
8
0
10
20.426476
20
-69.659063
11
19.665437
21
-67.445673
0
LINE
8
0
10
19.665437
20
-67.445673
11
19.107990
21
-65.140656
0
LINE
8
0
10
19.107990
20
-65.140656
11
18.765117
21
-62.753992
0
LINE
8
0
10
18.765117
20
-62.753992
11
11.050580
21
-62.753992
0
LINE
8
0
10
11.050580
20
-62.753992
11
11.050580
21
-88.153960
0
LINE
8
0
10
11.050580
20
-88.153960
11
76.650498
21
-88.153960
0
LINE
8
0
10
76.650498
20
-88.153960
11
76.650498
21
-62.753992
0
LINE
8
0
10
76.650498
20
-62.753992
11
76.650498
21
-62.753992
0
LINE
8
0
10
35.850549
20
-26.280588
11
32.898150
21
-27.111767
0
LINE
8
0
10
32.898150
20
-27.111767
11
30.045983
21
-28.191347
0
LINE
8
0
10
30.045983
20
-28.191347
11
27.308563
21
-29.509842
0
LINE
8
0
10
27.308563
20
-29.509842
11
24.700399
21
-31.057766
0
LINE
8
0
10
24.700399
20
-31.057766
11
22.236007
21
-32.825632
0
LINE
8
0
10
22.236007
20
-32.825632
11
19.929897
21
-34.803955
0
LINE
8
0
10
19.929897
20
-34.803955
11
17.796582
21
-36.983247
0
LINE
8
0
10
17.796582
20
-36.983247
11
15.850574
21
-39.354022
0
LINE
8
0
10
15.850585
20
-39.353785
11
15.850585
21
-14.281900
0
LINE
8
0
10
15.850585
20
-14.281900
11
35.850467
21
-14.281900
0
LINE
8
0
10
35.850467
20
-26.280739
11
35.850467
21
-14.281900
0
LINE
8
0
10
51.850595
20
-14.281900
11
51.850595
21
-26.280739
0
LINE
8
0
10
71.850504
20
-39.354022
11
69.904497
21
-36.983247
0
LINE
8
0
10
69.904497
20
-36.983247
11
67.771182
21
-34.803955
0
LINE
8
0
10
67.771182
20
-34.803955
11
65.465072
21
-32.825632
0
LINE
8
0
10
65.465072
20
-32.825632
11
63.000679
21
-31.057766
0
LINE
8
0
10
63.000679
20
-31.057766
11
60.392516
21
-29.509842
0
LINE
8
0
10
60.392516
20
-29.509842
11
57.655095
21
-28.191347
0
LINE
8
0
10
57.655095
20
-28.191347
11
54.802928
21
-27.111767
0
LINE
8
0
10
54.802928
20
-27.111767
11
51.850529
21
-26.280588
0
LINE
8
0
10
71.850424
20
-39.353785
11
71.850424
21
-14.281900
0
LINE
8
0
10
51.850595
20
-14.281900
11
71.850424
21
-14.281900
0
LINE
8
0
10
15.850574
20
-9.280610
11
71.850504
21
-9.280610
0
LINE
8
0
10
71.850504
20
-9.280610
11
71.850504
21
12.719363
0
LINE
8
0
10
71.850504
20
12.719363
11
15.850574
21
12.719363
0
LINE
8
0
10
15.850574
20
12.719363
11
15.850574
21
-9.280610
0
LINE
8
0
10
15.850574
20
-9.280610
11
15.850574
21
-9.280610
0
LINE
8
0
10
15.850574
20
17.719356
11
71.850504
21
17.719356
0
LINE
8
0
10
71.850504
20
17.719356
11
71.850504
21
57.645856
0
LINE
8
0
10
71.850504
20
57.645856
11
15.850574
21
57.645856
0
LINE
8
0
10
15.850574
20
57.645856
11
15.850574
21
17.719356
0
LINE
8
0
10
15.850574
20
17.719356
11
15.850574
21
17.719356
0
LINE
8
0
10
34.850550
20
-25.497189
11
32.271449
21
-26.267005
0
LINE
8
0
10
32.271449
20
-26.267005
11
29.767405
21
-27.222982
0
LINE
8
0
10
29.767405
20
-27.222982
11
27.347904
21
-28.359300
0
LINE
8
0
10
27.347904
20
-28.359300
11
25.022433
21
-29.670137
0
LINE
8
0
10
25.022433
20
-29.670137
11
22.800477
21
-31.149674
0
LINE
8
0
10
22.800477
20
-31.149674
11
20.691525
21
-32.792087
0
LINE
8
0
10
20.691525
20
-32.792087
11
18.705061
21
-34.591558
0
LINE
8
0
10
18.705061
20
-34.591558
11
16.850573
21
-36.542263
0
LINE
8
0
10
16.850577
20
-36.541267
11
16.850577
21
-15.279377
0
LINE
8
0
10
34.850608
20
-25.497573
11
34.850608
21
-15.279377
0
LINE
8
0
10
16.850577
20
-15.279377
11
34.850608
21
-15.279377
0
LINE
8
0
10
15.850574
20
-60.353995
11
18.650571
21
-60.353995
0
LINE
8
0
10
18.650571
20
-60.353995
11
18.872182
21
-57.016018
0
LINE
8
0
10
18.872182
20
-57.016018
11
19.522880
21
-53.778879
0
LINE
8
0
10
19.522880
20
-53.778879
11
20.581462
21
-50.679302
0
LINE
8
0
10
20.581462
20
-50.679302
11
22.026727
21
-47.754011
0
LINE
8
0
10
22.026727
20
-47.754011
11
23.837471
21
-45.039730
0
LINE
8
0
10
23.837471
20
-45.039730
11
25.992492
21
-42.573183
0
LINE
8
0
10
25.992492
20
-42.573183
11
28.470587
21
-40.391092
0
LINE
8
0
10
28.470587
20
-40.391092
11
31.250555
21
-38.530183
0
LINE
8
0
10
31.250555
20
-38.530183
11
34.252134
21
-37.053115
0
LINE
8
0
10
34.252134
20
-37.053115
11
37.380927
21
-35.998066
0
LINE
8
0
10
37.380927
20
-35.998066
11
40.594531
21
-35.365037
0
LINE
8
0
10
40.594531
20
-35.365037
11
43.850539
21
-35.154027
0
LINE
8
0
10
43.850539
20
-35.154027
11
47.106547
21
-35.365037
0
LINE
8
0
10
47.106547
20
-35.365037
11
50.320151
21
-35.998066
0
LINE
8
0
10
50.320151
20
-35.998066
11
53.448944
21
-37.053115
0
LINE
8
0
10
53.448944
20
-37.053115
11
56.450523
21
-38.530183
0
LINE
8
0
10
56.450523
20
-38.530183
11
59.230491
21
-40.391092
0
LINE
8
0
10
59.230491
20
-40.391092
11
61.708587
21
-42.573183
0
LINE
8
0
10
61.708587
20
-42.573183
11
63.863608
21
-45.039730
0
LINE
8
0
10
63.863608
20
-45.039730
11
65.674352
21
-47.754011
0
LINE
8
0
10
65.674352
20
-47.754011
11
67.119616
21
-50.679302
0
LINE
8
0
10
67.119616
20
-50.679302
11
68.178198
21
-53.778879
0
LINE
8
0
10
68.178198
20
-53.778879
11
68.828896
21
-57.016018
0
LINE
8
0
10
68.828896
20
-57.016018
11
69.050507
21
-60.353995
0
LINE
8
0
10
69.050507
20
-60.353995
11
71.850504
21
-60.353995
0
LINE
8
0
10
71.850504
20
-60.353995
11
76.650498
21
-60.353995
0
LINE
8
0
10
76.650498
20
-60.353995
11
76.650498
21
62.445850
0
LINE
8
0
10
76.650498
20
62.445850
11
11.050580
21
62.445850
0
LINE
8
0
10
11.050580
20
62.445850
11
11.050580
21
-60.353995
0
LINE
8
0
10
11.050580
20
-60.353995
11
15.850574
21
-60.353995
0
LINE
8
0
10
15.850574
20
-60.353995
11
15.850574
21
-60.353995
0
LINE
8
0
10
15.650575
20
-14.080604
11
36.050549
21
-14.080604
0
LINE
8
0
10
36.050549
20
-14.080604
11
36.050549
21
-26.439439
0
LINE
8
0
10
36.050549
20
-26.439439
11
33.018454
21
-27.282750
0
LINE
8
0
10
33.018454
20
-27.282750
11
30.092555
21
-28.389006
0
LINE
8
0
10
30.092555
20
-28.389006
11
27.288626
21
-29.747750
0
LINE
8
0
10
27.288626
20
-29.747750
11
24.622439
21
-31.348528
0
LINE
8
0
10
24.622439
20
-31.348528
11
22.109768
21
-33.180883
0
LINE
8
0
10
22.109768
20
-33.180883
11
19.766385
21
-35.234358
0
LINE
8
0
10
19.766385
20
-35.234358
11
17.608063
21
-37.498498
0
LINE
8
0
10
17.608063
20
-37.498498
11
15.650575
21
-39.962846
0
LINE
8
0
10
15.650575
20
-39.962846
11
15.650575
21
-14.080604
0
LINE
8
0
10
15.650575
20
-14.080604
11
15.650575
21
-14.080604
0
LINE
8
0
10
34.650551
20
-25.342613
11
34.650551
21
-15.480602
0
LINE
8
0
10
34.650551
20
-15.480602
11
17.050573
21
-15.480602
0
LINE
8
0
10
17.050573
20
-15.480602
11
17.050573
21
-36.018866
0
LINE
8
0
10
17.050573
20
-36.018866
11
18.881145
21
-34.143934
0
LINE
8
0
10
18.881145
20
-34.143934
11
20.834651
21
-32.412857
0
LINE
8
0
10
20.834651
20
-32.412857
11
22.902398
21
-30.830908
0
LINE
8
0
10
22.902398
20
-30.830908
11
25.075695
21
-29.403359
0
LINE
8
0
10
25.075695
20
-29.403359
11
27.345850
21
-28.135482
0
LINE
8
0
10
27.345850
20
-28.135482
11
29.704172
21
-27.032551
0
LINE
8
0
10
29.704172
20
-27.032551
11
32.141970
21
-26.099837
0
LINE
8
0
10
32.141970
20
-26.099837
11
34.650551
21
-25.342613
0
LINE
8
0
10
34.650551
20
-25.342613
11
34.650551
21
-25.342613
0
LINE
8
0
10
72.050504
20
12.919362
11
15.650575
21
12.919362
0
LINE
8
0
10
15.650575
20
12.919362
11
15.650575
21
-9.480609
0
LINE
8
0
10
15.650575
20
-9.480609
11
72.050504
21
-9.480609
0
LINE
8
0
10
72.050504
20
-9.480609
11
72.050504
21
12.919362
0
LINE
8
0
10
72.050504
20
12.919362
11
72.050504
21
12.919362
0
LINE
8
0
10
51.650529
20
-14.080604
11
72.050504
21
-14.080604
0
LINE
8
0
10
72.050504
20
-14.080604
11
72.050504
21
-39.962846
0
LINE
8
0
10
72.050504
20
-39.962846
11
70.093016
21
-37.498498
0
LINE
8
0
10
70.093016
20
-37.498498
11
67.934693
21
-35.234358
0
LINE
8
0
10
67.934693
20
-35.234358
11
65.591310
21
-33.180883
0
LINE
8
0
10
65.591310
20
-33.180883
11
63.078639
21
-31.348528
0
LINE
8
0
10
63.078639
20
-31.348528
11
60.412452
21
-29.747750
0
LINE
8
0
10
60.412452
20
-29.747750
11
57.608523
21
-28.389006
0
LINE
8
0
10
57.608523
20
-28.389006
11
54.682624
21
-27.282750
0
LINE
8
0
10
54.682624
20
-27.282750
11
51.650529
21
-26.439439
0
LINE
8
0
10
51.650529
20
-26.439439
11
51.650529
21
-14.080604
0
LINE
8
0
10
51.650529
20
-14.080604
11
51.650529
21
-14.080604
0
LINE
8
0
10
72.050504
20
57.845856
11
15.650575
21
57.845856
0
LINE
8
0
10
15.650575
20
57.845856
11
15.650575
21
17.519357
0
LINE
8
0
10
15.650575
20
17.519357
11
72.050504
21
17.519357
0
LINE
8
0
10
72.050504
20
17.519357
11
72.050504
21
57.845856
0
LINE
8
0
10
72.050504
20
57.845856
11
72.050504
21
57.845856
 0 
ENDSEC
 0 
EOF